<?xml version="1.0"?><svg width="793.6999999999999" height="1122.5196428571428" xmlns="http://www.w3.org/2000/svg">
 <title>Family Tree</title>
 <metadata id="metadata7">image/svg+xml</metadata>

 <g>
  <title>Layer 1</title>
  <path d="m278.315094,635.104004l218.361115,0c0,0 -107.736206,267.287048 41.022827,347.20575c-176.000946,-48.560791 20.510132,82.593567 -139.948334,15.295166c3.207275,-18.354492 -30.607819,-47.795593 -167.294708,-3.059265c164.055176,-135.272949 47.8591,-359.44165 47.8591,-359.44165z" fill="#562f0a" id="rect1305"/>
  <path d="m438.385742,154.171997c-77.640106,0 -146.204681,28.32373 -188.011948,71.586716c-122.0961,4.319885 -219.463194,78.330307 -219.463194,169.140854c0,52.938599 33.101599,100.205811 84.866232,131.303131c6.096268,90.305481 128.175423,162.458313 277.773643,162.458313c153.489746,0 278.044922,-75.951599 278.044922,-169.537903c0,-0.461182 -0.084778,-0.911682 -0.090088,-1.372925c44.021545,-20.132294 71.844666,-49.110901 71.844666,-81.442047c0,-33.75647 -30.204773,-63.944275 -77.645325,-84.128998c2.157043,-9.256165 3.32251,-18.751953 3.32251,-28.469269c0,-93.585251 -103.32312,-169.537872 -230.641418,-169.537872z" fill="#007f00" id="path2035"/>
 </g>
</svg>